<svg xmlns="http://www.w3.org/2000/svg" xmlns:xlink="http://www.w3.org/1999/xlink" width="1440" height="217.1"><rect width="1440" height="217.1" rx="0" ry="0" class="a"/><svg height="217.1" viewBox="0 0 144 21.71" width="1440" xmlns="http://www.w3.org/2000/svg" xmlns:xlink="http://www.w3.org/1999/xlink"><style>@keyframes h{0%{transform:translateX(0)}1.83%{transform:translateX(-144px)}6.03%{transform:translateX(-288px)}7.07%{transform:translateX(-432px)}8.09%{transform:translateX(-576px)}9.31%{transform:translateX(-720px)}10.5%{transform:translateX(-864px)}16.13%{transform:translateX(-1008px)}17.24%{transform:translateX(-1152px)}18.52%{transform:translateX(-1296px)}19.92%{transform:translateX(-1440px)}21.27%{transform:translateX(-1584px)}22.22%{transform:translateX(-1728px)}23.46%{transform:translateX(-1872px)}24.21%{transform:translateX(-2016px)}25.36%{transform:translateX(-2160px)}26.31%{transform:translateX(-2304px)}27.54%{transform:translateX(-2448px)}28.25%{transform:translateX(-2592px)}29.04%{transform:translateX(-2736px)}30.72%{transform:translateX(-2880px)}31.61%{transform:translateX(-3024px)}32.48%{transform:translateX(-3168px)}33.34%{transform:translateX(-3312px)}33.99%{transform:translateX(-3456px)}34.8%{transform:translateX(-3600px)}35.82%{transform:translateX(-3744px)}36.53%{transform:translateX(-3888px)}40.41%{transform:translateX(-4032px)}40.93%{transform:translateX(-4176px)}41.88%{transform:translateX(-4320px)}44.36%{transform:translateX(-4464px)}47.18%{transform:translateX(-4608px)}47.99%{transform:translateX(-4752px)}49.02%{transform:translateX(-4896px)}49.84%{transform:translateX(-5040px)}50.65%{transform:translateX(-5184px)}51.73%{transform:translateX(-5328px)}51.98%{transform:translateX(-5472px)}52.65%{transform:translateX(-5616px)}53.13%{transform:translateX(-5760px)}54.25%{transform:translateX(-5904px)}57.05%{transform:translateX(-6048px)}57.75%{transform:translateX(-6192px)}59.05%{transform:translateX(-6336px)}59.69%{transform:translateX(-6480px)}60.41%{transform:translateX(-6624px)}61.1%{transform:translateX(-6768px)}63.57%{transform:translateX(-6912px)}66.47%{transform:translateX(-7056px)}68.63%{transform:translateX(-7200px)}70.12%{transform:translateX(-7344px)}71.23%{transform:translateX(-7488px)}72.05%{transform:translateX(-7632px)}72.95%{transform:translateX(-7776px)}73.73%{transform:translateX(-7920px)}74.57%{transform:translateX(-8064px)}75.65%{transform:translateX(-8208px)}76.05%{transform:translateX(-8352px)}76.58%{transform:translateX(-8496px)}77.46%{transform:translateX(-8640px)}80.55%{transform:translateX(-8784px)}90.24%{transform:translateX(-9216px)}90.25%{transform:translateX(-9504px)}90.31%{transform:translateX(-9648px)}to{transform:translateX(-9792px)}}.a{fill:#000}.c{fill:#f2f2f2}.d{fill:#25bc24}</style><g font-size="1.67" font-family="Monaco,Consolas,Menlo,'Bitstream Vera Sans Mono','Powerline Symbols',monospace"><defs><symbol id="1"><text y="1.67" class="c">bash-3.2$</text></symbol><symbol id="2"><text y="1.67" class="c">bash-3.2$</text><text x="10.02" y="1.67" class="c">ng</text></symbol><symbol id="3"><text y="1.67" class="c">bash-3.2$</text><text x="10.02" y="1.67" class="c">ng</text><text x="13.026" y="1.67" class="c">g</text></symbol><symbol id="4"><text y="1.67" class="c">bash-3.2$</text><text x="10.02" y="1.67" class="c">ng</text><text x="13.026" y="1.67" class="c">g</text><text x="15.03" y="1.67" class="c">ngx-storybook-schematics:component</text></symbol><symbol id="5"><text y="1.67" class="c">bash-3.2$</text><text x="10.02" y="1.67" class="c">ng</text><text x="13.026" y="1.67" class="c">g</text><text x="15.03" y="1.67" class="c">ngx-storybook-schematics:component</text><text x="50.1" y="1.67" class="c">--name</text></symbol><symbol id="6"><text y="1.67" class="c">bash-3.2$</text><text x="10.02" y="1.67" class="c">ng</text><text x="13.026" y="1.67" class="c">g</text><text x="15.03" y="1.67" class="c">ngx-storybook-schematics:component</text><text x="50.1" y="1.67" class="c">--name</text><text x="57.114" y="1.67" class="c">my-component</text></symbol><symbol id="7"><text y="1.67" class="d">CREATE</text><text x="7.014" y="1.67" class="c">src/app/my-component/my-component.component.css</text><text x="55.11" y="1.67" class="c">(0</text><text x="58.116" y="1.67" class="c">bytes)</text></symbol><symbol id="8"><text y="1.67" class="d">CREATE</text><text x="7.014" y="1.67" class="c">src/app/my-component/my-component.component.html</text><text x="56.112" y="1.67" class="c">(31</text><text x="60.12" y="1.67" class="c">bytes)</text></symbol><symbol id="9"><text y="1.67" class="d">CREATE</text><text x="7.014" y="1.67" class="c">src/app/my-component/my-component.component.spec.ts</text><text x="59.118" y="1.67" class="c">(664</text><text x="64.128" y="1.67" class="c">bytes)</text></symbol><symbol id="10"><text y="1.67" class="d">CREATE</text><text x="7.014" y="1.67" class="c">src/app/my-component/my-component.component.ts</text><text x="54.108" y="1.67" class="c">(292</text><text x="59.118" y="1.67" class="c">bytes)</text></symbol><symbol id="11"><text y="1.67" class="d">CREATE</text><text x="7.014" y="1.67" class="c">src/app/my-component/my-component.stories.ts</text><text x="52.104" y="1.67" class="c">(226</text><text x="57.114" y="1.67" class="c">bytes)</text></symbol><symbol id="12"><text y="1.67" fill="#cbcccd">UPDATE</text><text x="7.014" y="1.67" class="c">src/app/app.module.ts</text><text x="29.058" y="1.67" class="c">(418</text><text x="34.068" y="1.67" class="c">bytes)</text></symbol><symbol id="a"><path fill="transparent" d="M0 0h144v11H0z"/></symbol><symbol id="b"><path fill="#4d4d4d" d="M0 0h1.102v2.171H0z"/></symbol></defs><path class="a" d="M0 0h144v21.71H0z"/><g style="animation-duration:20.64322s;animation-iteration-count:infinite;animation-name:h;animation-timing-function:steps(1,end)"><svg width="9936"><svg><use xlink:href="#a"/><use xlink:href="#b" x="-.004"/></svg><svg x="144"><use xlink:href="#a"/><use xlink:href="#b" x="9.996"/><use xlink:href="#1"/></svg><svg x="288"><use xlink:href="#a"/><use xlink:href="#b" x="10.996"/><text y="1.67" class="c">bash-3.2$</text><text x="10.02" y="1.67" class="c">n</text></svg><svg x="432"><use xlink:href="#a"/><use xlink:href="#b" x="11.996"/><use xlink:href="#2"/></svg><svg x="576"><use xlink:href="#a"/><use xlink:href="#b" x="12.996"/><use xlink:href="#2"/></svg><svg x="720"><use xlink:href="#a"/><use xlink:href="#b" x="13.996"/><use xlink:href="#3"/></svg><svg x="864"><use xlink:href="#a"/><use xlink:href="#b" x="14.996"/><use xlink:href="#3"/></svg><svg x="1008"><use xlink:href="#a"/><use xlink:href="#b" x="15.996"/><text y="1.67" class="c">bash-3.2$</text><text x="10.02" y="1.67" class="c">ng</text><text x="13.026" y="1.67" class="c">g</text><text x="15.03" y="1.67" class="c">n</text></svg><svg x="1152"><use xlink:href="#a"/><use xlink:href="#b" x="16.996"/><text y="1.67" class="c">bash-3.2$</text><text x="10.02" y="1.67" class="c">ng</text><text x="13.026" y="1.67" class="c">g</text><text x="15.03" y="1.67" class="c">ng</text></svg><svg x="1296"><use xlink:href="#a"/><use xlink:href="#b" x="17.996"/><text y="1.67" class="c">bash-3.2$</text><text x="10.02" y="1.67" class="c">ng</text><text x="13.026" y="1.67" class="c">g</text><text x="15.03" y="1.67" class="c">ngx</text></svg><svg x="1440"><use xlink:href="#a"/><use xlink:href="#b" x="18.996"/><text y="1.67" class="c">bash-3.2$</text><text x="10.02" y="1.67" class="c">ng</text><text x="13.026" y="1.67" class="c">g</text><text x="15.03" y="1.67" class="c">ngx-</text></svg><svg x="1584"><use xlink:href="#a"/><use xlink:href="#b" x="19.996"/><text y="1.67" class="c">bash-3.2$</text><text x="10.02" y="1.67" class="c">ng</text><text x="13.026" y="1.67" class="c">g</text><text x="15.03" y="1.67" class="c">ngx-s</text></svg><svg x="1728"><use xlink:href="#a"/><use xlink:href="#b" x="20.996"/><text y="1.67" class="c">bash-3.2$</text><text x="10.02" y="1.67" class="c">ng</text><text x="13.026" y="1.67" class="c">g</text><text x="15.03" y="1.67" class="c">ngx-st</text></svg><svg x="1872"><use xlink:href="#a"/><use xlink:href="#b" x="21.996"/><text y="1.67" class="c">bash-3.2$</text><text x="10.02" y="1.67" class="c">ng</text><text x="13.026" y="1.67" class="c">g</text><text x="15.03" y="1.67" class="c">ngx-sto</text></svg><svg x="2016"><use xlink:href="#a"/><use xlink:href="#b" x="22.996"/><text y="1.67" class="c">bash-3.2$</text><text x="10.02" y="1.67" class="c">ng</text><text x="13.026" y="1.67" class="c">g</text><text x="15.03" y="1.67" class="c">ngx-stor</text></svg><svg x="2160"><use xlink:href="#a"/><use xlink:href="#b" x="23.996"/><text y="1.67" class="c">bash-3.2$</text><text x="10.02" y="1.67" class="c">ng</text><text x="13.026" y="1.67" class="c">g</text><text x="15.03" y="1.67" class="c">ngx-story</text></svg><svg x="2304"><use xlink:href="#a"/><use xlink:href="#b" x="24.996"/><text y="1.67" class="c">bash-3.2$</text><text x="10.02" y="1.67" class="c">ng</text><text x="13.026" y="1.67" class="c">g</text><text x="15.03" y="1.67" class="c">ngx-storyb</text></svg><svg x="2448"><use xlink:href="#a"/><use xlink:href="#b" x="25.996"/><text y="1.67" class="c">bash-3.2$</text><text x="10.02" y="1.67" class="c">ng</text><text x="13.026" y="1.67" class="c">g</text><text x="15.03" y="1.67" class="c">ngx-storybo</text></svg><svg x="2592"><use xlink:href="#a"/><use xlink:href="#b" x="26.996"/><text y="1.67" class="c">bash-3.2$</text><text x="10.02" y="1.67" class="c">ng</text><text x="13.026" y="1.67" class="c">g</text><text x="15.03" y="1.67" class="c">ngx-storyboo</text></svg><svg x="2736"><use xlink:href="#a"/><use xlink:href="#b" x="27.996"/><text y="1.67" class="c">bash-3.2$</text><text x="10.02" y="1.67" class="c">ng</text><text x="13.026" y="1.67" class="c">g</text><text x="15.03" y="1.67" class="c">ngx-storybook</text></svg><svg x="2880"><use xlink:href="#a"/><use xlink:href="#b" x="28.996"/><text y="1.67" class="c">bash-3.2$</text><text x="10.02" y="1.67" class="c">ng</text><text x="13.026" y="1.67" class="c">g</text><text x="15.03" y="1.67" class="c">ngx-storybook-</text></svg><svg x="3024"><use xlink:href="#a"/><use xlink:href="#b" x="29.996"/><text y="1.67" class="c">bash-3.2$</text><text x="10.02" y="1.67" class="c">ng</text><text x="13.026" y="1.67" class="c">g</text><text x="15.03" y="1.67" class="c">ngx-storybook-s</text></svg><svg x="3168"><use xlink:href="#a"/><use xlink:href="#b" x="30.996"/><text y="1.67" class="c">bash-3.2$</text><text x="10.02" y="1.67" class="c">ng</text><text x="13.026" y="1.67" class="c">g</text><text x="15.03" y="1.67" class="c">ngx-storybook-sc</text></svg><svg x="3312"><use xlink:href="#a"/><use xlink:href="#b" x="31.996"/><text y="1.67" class="c">bash-3.2$</text><text x="10.02" y="1.67" class="c">ng</text><text x="13.026" y="1.67" class="c">g</text><text x="15.03" y="1.67" class="c">ngx-storybook-sch</text></svg><svg x="3456"><use xlink:href="#a"/><use xlink:href="#b" x="32.996"/><text y="1.67" class="c">bash-3.2$</text><text x="10.02" y="1.67" class="c">ng</text><text x="13.026" y="1.67" class="c">g</text><text x="15.03" y="1.67" class="c">ngx-storybook-sche</text></svg><svg x="3600"><use xlink:href="#a"/><use xlink:href="#b" x="33.996"/><text y="1.67" class="c">bash-3.2$</text><text x="10.02" y="1.67" class="c">ng</text><text x="13.026" y="1.67" class="c">g</text><text x="15.03" y="1.67" class="c">ngx-storybook-schem</text></svg><svg x="3744"><use xlink:href="#a"/><use xlink:href="#b" x="34.996"/><text y="1.67" class="c">bash-3.2$</text><text x="10.02" y="1.67" class="c">ng</text><text x="13.026" y="1.67" class="c">g</text><text x="15.03" y="1.67" class="c">ngx-storybook-schema</text></svg><svg x="3888"><use xlink:href="#a"/><use xlink:href="#b" x="35.996"/><text y="1.67" class="c">bash-3.2$</text><text x="10.02" y="1.67" class="c">ng</text><text x="13.026" y="1.67" class="c">g</text><text x="15.03" y="1.67" class="c">ngx-storybook-schemat</text></svg><svg x="4032"><use xlink:href="#a"/><use xlink:href="#b" x="36.996"/><text y="1.67" class="c">bash-3.2$</text><text x="10.02" y="1.67" class="c">ng</text><text x="13.026" y="1.67" class="c">g</text><text x="15.03" y="1.67" class="c">ngx-storybook-schemati</text></svg><svg x="4176"><use xlink:href="#a"/><use xlink:href="#b" x="37.996"/><text y="1.67" class="c">bash-3.2$</text><text x="10.02" y="1.67" class="c">ng</text><text x="13.026" y="1.67" class="c">g</text><text x="15.03" y="1.67" class="c">ngx-storybook-schematic</text></svg><svg x="4320"><use xlink:href="#a"/><use xlink:href="#b" x="38.996"/><text y="1.67" class="c">bash-3.2$</text><text x="10.02" y="1.67" class="c">ng</text><text x="13.026" y="1.67" class="c">g</text><text x="15.03" y="1.67" class="c">ngx-storybook-schematics</text></svg><svg x="4464"><use xlink:href="#a"/><use xlink:href="#b" x="39.996"/><text y="1.67" class="c">bash-3.2$</text><text x="10.02" y="1.67" class="c">ng</text><text x="13.026" y="1.67" class="c">g</text><text x="15.03" y="1.67" class="c">ngx-storybook-schematics:</text></svg><svg x="4608"><use xlink:href="#a"/><use xlink:href="#b" x="40.996"/><text y="1.67" class="c">bash-3.2$</text><text x="10.02" y="1.67" class="c">ng</text><text x="13.026" y="1.67" class="c">g</text><text x="15.03" y="1.67" class="c">ngx-storybook-schematics:c</text></svg><svg x="4752"><use xlink:href="#a"/><use xlink:href="#b" x="41.996"/><text y="1.67" class="c">bash-3.2$</text><text x="10.02" y="1.67" class="c">ng</text><text x="13.026" y="1.67" class="c">g</text><text x="15.03" y="1.67" class="c">ngx-storybook-schematics:co</text></svg><svg x="4896"><use xlink:href="#a"/><use xlink:href="#b" x="42.996"/><text y="1.67" class="c">bash-3.2$</text><text x="10.02" y="1.67" class="c">ng</text><text x="13.026" y="1.67" class="c">g</text><text x="15.03" y="1.67" class="c">ngx-storybook-schematics:com</text></svg><svg x="5040"><use xlink:href="#a"/><use xlink:href="#b" x="43.996"/><text y="1.67" class="c">bash-3.2$</text><text x="10.02" y="1.67" class="c">ng</text><text x="13.026" y="1.67" class="c">g</text><text x="15.03" y="1.67" class="c">ngx-storybook-schematics:comp</text></svg><svg x="5184"><use xlink:href="#a"/><use xlink:href="#b" x="44.996"/><text y="1.67" class="c">bash-3.2$</text><text x="10.02" y="1.67" class="c">ng</text><text x="13.026" y="1.67" class="c">g</text><text x="15.03" y="1.67" class="c">ngx-storybook-schematics:compo</text></svg><svg x="5328"><use xlink:href="#a"/><use xlink:href="#b" x="45.996"/><text y="1.67" class="c">bash-3.2$</text><text x="10.02" y="1.67" class="c">ng</text><text x="13.026" y="1.67" class="c">g</text><text x="15.03" y="1.67" class="c">ngx-storybook-schematics:compon</text></svg><svg x="5472"><use xlink:href="#a"/><use xlink:href="#b" x="46.996"/><text y="1.67" class="c">bash-3.2$</text><text x="10.02" y="1.67" class="c">ng</text><text x="13.026" y="1.67" class="c">g</text><text x="15.03" y="1.67" class="c">ngx-storybook-schematics:compone</text></svg><svg x="5616"><use xlink:href="#a"/><use xlink:href="#b" x="47.996"/><text y="1.67" class="c">bash-3.2$</text><text x="10.02" y="1.67" class="c">ng</text><text x="13.026" y="1.67" class="c">g</text><text x="15.03" y="1.67" class="c">ngx-storybook-schematics:componen</text></svg><svg x="5760"><use xlink:href="#a"/><use xlink:href="#b" x="48.996"/><use xlink:href="#4"/></svg><svg x="5904"><use xlink:href="#a"/><use xlink:href="#b" x="49.996"/><use xlink:href="#4"/></svg><svg x="6048"><use xlink:href="#a"/><use xlink:href="#b" x="50.996"/><text y="1.67" class="c">bash-3.2$</text><text x="10.02" y="1.67" class="c">ng</text><text x="13.026" y="1.67" class="c">g</text><text x="15.03" y="1.67" class="c">ngx-storybook-schematics:component</text><text x="50.1" y="1.67" class="c">-</text></svg><svg x="6192"><use xlink:href="#a"/><use xlink:href="#b" x="51.996"/><text y="1.67" class="c">bash-3.2$</text><text x="10.02" y="1.67" class="c">ng</text><text x="13.026" y="1.67" class="c">g</text><text x="15.03" y="1.67" class="c">ngx-storybook-schematics:component</text><text x="50.1" y="1.67" class="c">--</text></svg><svg x="6336"><use xlink:href="#a"/><use xlink:href="#b" x="52.996"/><text y="1.67" class="c">bash-3.2$</text><text x="10.02" y="1.67" class="c">ng</text><text x="13.026" y="1.67" class="c">g</text><text x="15.03" y="1.67" class="c">ngx-storybook-schematics:component</text><text x="50.1" y="1.67" class="c">--n</text></svg><svg x="6480"><use xlink:href="#a"/><use xlink:href="#b" x="53.996"/><text y="1.67" class="c">bash-3.2$</text><text x="10.02" y="1.67" class="c">ng</text><text x="13.026" y="1.67" class="c">g</text><text x="15.03" y="1.67" class="c">ngx-storybook-schematics:component</text><text x="50.1" y="1.67" class="c">--na</text></svg><svg x="6624"><use xlink:href="#a"/><use xlink:href="#b" x="54.996"/><text y="1.67" class="c">bash-3.2$</text><text x="10.02" y="1.67" class="c">ng</text><text x="13.026" y="1.67" class="c">g</text><text x="15.03" y="1.67" class="c">ngx-storybook-schematics:component</text><text x="50.1" y="1.67" class="c">--nam</text></svg><svg x="6768"><use xlink:href="#a"/><use xlink:href="#b" x="55.996"/><use xlink:href="#5"/></svg><svg x="6912"><use xlink:href="#a"/><use xlink:href="#b" x="56.996"/><use xlink:href="#5"/></svg><svg x="7056"><use xlink:href="#a"/><use xlink:href="#b" x="57.996"/><text y="1.67" class="c">bash-3.2$</text><text x="10.02" y="1.67" class="c">ng</text><text x="13.026" y="1.67" class="c">g</text><text x="15.03" y="1.67" class="c">ngx-storybook-schematics:component</text><text x="50.1" y="1.67" class="c">--name</text><text x="57.114" y="1.67" class="c">m</text></svg><svg x="7200"><use xlink:href="#a"/><use xlink:href="#b" x="58.996"/><text y="1.67" class="c">bash-3.2$</text><text x="10.02" y="1.67" class="c">ng</text><text x="13.026" y="1.67" class="c">g</text><text x="15.03" y="1.67" class="c">ngx-storybook-schematics:component</text><text x="50.1" y="1.67" class="c">--name</text><text x="57.114" y="1.67" class="c">my</text></svg><svg x="7344"><use xlink:href="#a"/><use xlink:href="#b" x="59.996"/><text y="1.67" class="c">bash-3.2$</text><text x="10.02" y="1.67" class="c">ng</text><text x="13.026" y="1.67" class="c">g</text><text x="15.03" y="1.67" class="c">ngx-storybook-schematics:component</text><text x="50.1" y="1.67" class="c">--name</text><text x="57.114" y="1.67" class="c">my-</text></svg><svg x="7488"><use xlink:href="#a"/><use xlink:href="#b" x="60.996"/><text y="1.67" class="c">bash-3.2$</text><text x="10.02" y="1.67" class="c">ng</text><text x="13.026" y="1.67" class="c">g</text><text x="15.03" y="1.67" class="c">ngx-storybook-schematics:component</text><text x="50.1" y="1.67" class="c">--name</text><text x="57.114" y="1.67" class="c">my-c</text></svg><svg x="7632"><use xlink:href="#a"/><use xlink:href="#b" x="61.996"/><text y="1.67" class="c">bash-3.2$</text><text x="10.02" y="1.67" class="c">ng</text><text x="13.026" y="1.67" class="c">g</text><text x="15.03" y="1.67" class="c">ngx-storybook-schematics:component</text><text x="50.1" y="1.67" class="c">--name</text><text x="57.114" y="1.67" class="c">my-co</text></svg><svg x="7776"><use xlink:href="#a"/><use xlink:href="#b" x="62.996"/><text y="1.67" class="c">bash-3.2$</text><text x="10.02" y="1.67" class="c">ng</text><text x="13.026" y="1.67" class="c">g</text><text x="15.03" y="1.67" class="c">ngx-storybook-schematics:component</text><text x="50.1" y="1.67" class="c">--name</text><text x="57.114" y="1.67" class="c">my-com</text></svg><svg x="7920"><use xlink:href="#a"/><use xlink:href="#b" x="63.996"/><text y="1.67" class="c">bash-3.2$</text><text x="10.02" y="1.67" class="c">ng</text><text x="13.026" y="1.67" class="c">g</text><text x="15.03" y="1.67" class="c">ngx-storybook-schematics:component</text><text x="50.1" y="1.67" class="c">--name</text><text x="57.114" y="1.67" class="c">my-comp</text></svg><svg x="8064"><use xlink:href="#a"/><use xlink:href="#b" x="64.996"/><text y="1.67" class="c">bash-3.2$</text><text x="10.02" y="1.67" class="c">ng</text><text x="13.026" y="1.67" class="c">g</text><text x="15.03" y="1.67" class="c">ngx-storybook-schematics:component</text><text x="50.1" y="1.67" class="c">--name</text><text x="57.114" y="1.67" class="c">my-compo</text></svg><svg x="8208"><use xlink:href="#a"/><use xlink:href="#b" x="65.996"/><text y="1.67" class="c">bash-3.2$</text><text x="10.02" y="1.67" class="c">ng</text><text x="13.026" y="1.67" class="c">g</text><text x="15.03" y="1.67" class="c">ngx-storybook-schematics:component</text><text x="50.1" y="1.67" class="c">--name</text><text x="57.114" y="1.67" class="c">my-compon</text></svg><svg x="8352"><use xlink:href="#a"/><use xlink:href="#b" x="66.996"/><text y="1.67" class="c">bash-3.2$</text><text x="10.02" y="1.67" class="c">ng</text><text x="13.026" y="1.67" class="c">g</text><text x="15.03" y="1.67" class="c">ngx-storybook-schematics:component</text><text x="50.1" y="1.67" class="c">--name</text><text x="57.114" y="1.67" class="c">my-compone</text></svg><svg x="8496"><use xlink:href="#a"/><use xlink:href="#b" x="67.996"/><text y="1.67" class="c">bash-3.2$</text><text x="10.02" y="1.67" class="c">ng</text><text x="13.026" y="1.67" class="c">g</text><text x="15.03" y="1.67" class="c">ngx-storybook-schematics:component</text><text x="50.1" y="1.67" class="c">--name</text><text x="57.114" y="1.67" class="c">my-componen</text></svg><svg x="8640"><use xlink:href="#a"/><use xlink:href="#b" x="68.996"/><use xlink:href="#6"/></svg><svg x="8784"><use xlink:href="#a"/><use xlink:href="#b" x="-.004" y="2.146"/><use xlink:href="#6"/></svg><svg x="8928"><use xlink:href="#a"/><use xlink:href="#b" x="63.996" y="2.146"/><use xlink:href="#6"/><use xlink:href="#7" y="2.171"/></svg><svg x="9072"><use xlink:href="#a"/><use xlink:href="#b" x="-.004" y="4.317"/><use xlink:href="#6"/><use xlink:href="#7" y="2.171"/></svg><svg x="9216"><use xlink:href="#a"/><use xlink:href="#b" x="65.996" y="4.317"/><use xlink:href="#6"/><use xlink:href="#7" y="2.171"/><use xlink:href="#8" y="4.342"/></svg><svg x="9360"><use xlink:href="#a"/><use xlink:href="#b" x="62.996" y="10.83"/><use xlink:href="#6"/><use xlink:href="#7" y="2.171"/><use xlink:href="#8" y="4.342"/><use xlink:href="#9" y="6.513"/><use xlink:href="#10" y="8.684"/><use xlink:href="#11" y="10.855"/></svg><svg x="9504"><use xlink:href="#a"/><use xlink:href="#b" x="-.004" y="15.172"/><use xlink:href="#6"/><use xlink:href="#7" y="2.171"/><use xlink:href="#8" y="4.342"/><use xlink:href="#9" y="6.513"/><use xlink:href="#10" y="8.684"/><use xlink:href="#11" y="10.855"/><use xlink:href="#12" y="13.026"/></svg><svg x="9648"><use xlink:href="#a"/><use xlink:href="#b" x="9.996" y="15.172"/><use xlink:href="#6"/><use xlink:href="#7" y="2.171"/><use xlink:href="#8" y="4.342"/><use xlink:href="#9" y="6.513"/><use xlink:href="#10" y="8.684"/><use xlink:href="#11" y="10.855"/><use xlink:href="#12" y="13.026"/><use xlink:href="#1" y="15.197"/></svg><svg x="9792"><use xlink:href="#a"/><use xlink:href="#b" x="-.004" y="17.343"/><use xlink:href="#6"/><use xlink:href="#7" y="2.171"/><use xlink:href="#8" y="4.342"/><use xlink:href="#9" y="6.513"/><use xlink:href="#10" y="8.684"/><use xlink:href="#11" y="10.855"/><use xlink:href="#12" y="13.026"/><text y="16.867" class="c">bash-3.2$</text><text x="10.02" y="16.867" class="c">exit</text></svg></svg></g></g></svg></svg>